<svg width="25" height="25" viewBox="0 0 25 25" fill="none" xmlns="http://www.w3.org/2000/svg">
<path d="M12.5 1.5625C14.6574 1.5625 16.4062 3.31139 16.4062 5.46875V6.25H8.59375V5.46875C8.59375 3.31139 10.3426 1.5625 12.5 1.5625ZM17.9688 6.25V5.46875C17.9688 2.44844 15.5203 0 12.5 0C9.47969 0 7.03125 2.44844 7.03125 5.46875V6.25H1.5625V21.875C1.5625 23.6009 2.96161 25 4.6875 25H20.3125C22.0384 25 23.4375 23.6009 23.4375 21.875V6.25H17.9688ZM3.125 7.8125H21.875V21.875C21.875 22.7379 21.1754 23.4375 20.3125 23.4375H4.6875C3.82455 23.4375 3.125 22.7379 3.125 21.875V7.8125Z" fill="black"/>
</svg>
