<svg width="26" height="24" viewBox="0 0 26 24" fill="none" xmlns="http://www.w3.org/2000/svg">
<rect width="26" height="24" rx="12" fill="#D9D9D9"/>
<path d="M13 4.875C14.2081 4.875 15.1875 5.85438 15.1875 7.0625V7.5H10.8125V7.0625C10.8125 5.85438 11.7919 4.875 13 4.875ZM16.0625 7.5V7.0625C16.0625 5.37113 14.6914 4 13 4C11.3086 4 9.9375 5.37113 9.9375 7.0625V7.5H6.875V16.25C6.875 17.2165 7.6585 18 8.625 18H17.375C18.3415 18 19.125 17.2165 19.125 16.25V7.5H16.0625ZM7.75 8.375H18.25V16.25C18.25 16.7332 17.8582 17.125 17.375 17.125H8.625C8.14175 17.125 7.75 16.7332 7.75 16.25V8.375Z" fill="black"/>
</svg>
